<svg width="1000" height="1000" xmlns="http://www.w3.org/2000/svg"><path d="M772.938 314.606c-1.928-17.366-3.856-51.618-12.059-52.582-8.201-.965-18.332 4.826-24.12-10.611-5.789-15.437-3.378-43.896-15.438-59.815-12.061-15.919-28.462-34.248-33.284-42.931-4.824-8.684-12.062-28.944-19.296-32.803-7.237-3.859-16.401 7.72-27.498-7.234s-22.673-26.05-43.416-34.25-33.287-6.271-37.146-9.648c-3.856-3.376-19.366-18.328-31.392-16.399-12.023 1.93-22.638-1.93-34.697 4.824-12.059 6.754-14.472-2.413-21.708 1.447-7.235 3.86-13.506-.482-21.225 1.93-7.72 2.412-18.331 0-27.015 3.859-8.684 3.86-13.99 13.508-20.743 15.437-6.753 1.93-15.438.482-20.262 7.718-4.823 7.236-7.717 13.507-16.883 14.473s-19.778 7.718-24.603 15.919c-4.825 8.201-28.46 24.603-31.354 33.286s-8.2 18.814-13.507 32.804c-5.307 13.989-15.438 21.226-13.99 28.944 1.447 7.718-7.236 20.441-14.472 22.281s-18.33 17.757-17.849 26.923c.482 9.166-14.955 16.402-14.955 25.085s-5.788 19.777-3.859 27.979c1.929 8.201-14.472 16.88-4.342 28.458 10.131 11.577 24.119 23.637 22.19 33.767-1.929 10.13-13.989 4.825-6.753 17.849 7.236 13.025 1.93 22.19 0 29.427-1.93 7.235-7.236 26.047-1.447 32.801 5.79 6.753 17.849 7.718 17.849 16.402 0 8.683 1.447 20.261-1.93 27.497-3.377 7.235-7.719 23.634-1.93 28.459 5.789 4.823 2.895 7.203 2.895 20.239 0 13.038-10.13 20.274-6.271 31.37 3.859 11.096 12.542 5.307 11.095 14.954-1.447 9.647-8.201 9.164-4.824 20.261s10.13 16.881 8.683 25.082c-1.447 8.2-7.718 9.649-3.376 17.851 4.341 8.198 8.683 13.989 7.236 18.813-1.447 4.824-6.754 10.132-2.413 16.401 4.341 6.271 8.351 8.666 11.653 21.217 5.991 22.771-4.414 26.531 6.681 53.547 11.095 27.016 13.99 38.116 28.462 48.729 14.472 10.612 10.613 15.438 20.743 30.392 10.131 14.954 7.718 10.134 17.849 24.607 10.131 14.472 10.613 25.084 22.19 30.873 11.578 5.788 11.096 15.438 23.639 24.119 12.542 8.685 13.507.966 27.014 8.685 13.509 7.718 28.462 15.438 40.039 16.885 11.578 1.447 18.814-2.895 30.875 0 12.061 2.896 22.19-3.378 35.698-3.378 13.507 0 29.908 0 38.591-4.824 8.685-4.823 25.567-17.364 34.733-20.742 9.167-3.377 21.708-14.474 27.014-23.639 5.309-9.166 19.774-25.083 22.188-32.803 2.411-7.72 1.445-12.061 13.99-16.402 12.542-4.342 16.884-8.409 16.884-16.747s10.13-1.584 10.13-8.819-2.896-5.306 6.754-21.707c9.646-16.402 5.305-13.99 10.13-27.017 4.825-13.025 13.033-14.473 14.718-23.154 1.686-8.685-3.622-15.438 3.614-19.779 7.235-4.342 13.988-18.33 10.612-28.46-3.377-10.132 3.622-27.87 1.691-35.107-1.929-7.234-6.029-12.18-3.616-19.897 2.411-7.72 10.782-14.11 12.302-32.924 1.517-18.814-3.498-12.061-8.322-23.155-4.824-11.096 19.175-40.521 17.729-53.908-.66-6.104-13.546-23.61-9.159-30.847 4.386-7.236 9.152-19.315 12.531-29.929 3.378-10.612 12.06-15.438 2.895-23.638-9.166-8.201-13.509-16.882-10.131-27.012s7.236-13.99 10.131-17.367 3.857-4.342 1.447-10.613c-2.411-6.271 2.895-17.845-.964-31.353-3.859-13.508 3.378-27.978 7.234-30.872 3.858-2.899-1.931-3.861-3.86-21.228zM594.454 754.539c-1.81 6.875-4.703 23.035-12.302 27.738s-16.522-4.583-24.482-2.774c-7.959 1.81-14.833 3.618-24.24 4.342-9.406.725-13.225-9.646-21.545-16.883-8.322-7.236-1.81-15.558-1.852-19.899-.041-4.341 9.646-6.271 13.267-8.805 3.617-2.533 5.427-8.683 2.17-10.13-3.256-1.447-1.809-5.065-8.683-5.789s-9.045-6.874-14.473-7.237c-5.428-.36-9.769 4.344-14.11 6.875-4.341 2.532-12.827-.209-15.919 8.321-1.837 5.069 3.618 6.151 10.131 8.321 6.512 2.172 9.407 11.58 11.577 16.283 2.171 4.703-5.427 9.406-9.045 20.623-3.618 11.216-22.07 3.255-28.583 8.682-6.512 5.426-18.09 3.801-26.05 6.694-7.96 2.895-19.899-3.076-18.452-9.589 1.446-6.513-2.713-9.228-3.075-16.102s1.085-20.441-1.085-30.21c-2.17-9.77 3.035-21.188.542-33.647-1.085-5.428 2.895-4.342 7.235-13.749 4.342-9.406 19.537-19.176 25.688-24.965 6.151-5.788 24.332-12.068 32.562-16.28 4.888-2.5 7.599 0 14.473-.985 6.875-.987 14.834 4.966 18.813 5.688 3.979.726 11.216-1.446 15.195-4.703 3.98-3.257 10.493 2.532 14.472 3.257 3.98.724 13.749 6.512 17.729 8.32 3.979 1.811 13.388 7.599 19.898 11.216 6.514 3.618 7.96 9.771 10.491 15.196 2.533 5.428 4.704 16.645 8.323 20.983 3.617 4.343 2.531 17.006 2.896 26.412.364 9.409.244 15.922-1.566 22.796zm127.475-127.354c-1.446 15.559-6.875 75.617-8.684 83.576-1.81 7.96-10.491 27.136-13.024 37.267-2.531 10.131-15.194 28.942-25.326 40.884-10.131 11.938-14.109 10.13-23.879 10.13-9.769 0-8.683-7.96-13.748-17.004-5.065-9.045-5.428-17.366-7.598-27.859-2.172-10.492 1.447-10.13-2.895-19.175-4.344-9.046-6.874-19.9-11.218-34.372-4.342-14.472-3.616-15.919-6.873-28.22-3.258-12.302-8.321-19.899-14.835-30.029-6.513-10.131-10.13-9.769-22.069-14.472-11.938-4.704-5.428-5.79-15.559-8.323-10.13-2.531-16.643-6.15-21.707-9.768-5.064-3.618-9.364-8.685-14.835-8.685-5.468 0-7.416 4.342-12.843 8.321-4.558 3.342-7.779-1.085-12.121-1.085-4.341 0-8.316-4.854-14.468-3.768-6.151 1.085-7.963 4.49-16.285 9.557-8.322 5.063-27.497 15.558-38.352 19.537s-15.799 15.622-26.411 27.135c-10.673 11.578-16.101 27.859-18.271 41.245-2.171 13.388-5.539 16.229-11.275 34.13-5.105 15.931-8.201 30.633-8.201 37.146 0 6.514-2.05 28.222-4.221 31.839s-12.302-3.979-15.558-6.15c-3.256-2.17-15.558-20.623-23.154-32.2-7.599-11.577-17.367-47.758-21.708-66.21-4.341-18.451-10.492-64.4-11.216-73.807-.724-9.407-2.532-28.222-4.703-52.462s4.703-64.764 10.854-91.536c6.151-26.773 8.684-53.908 8.684-53.908 2.192-18.036 3.256-36.904 4.341-52.823s-11.216-30.753-9.769-36.904c1.447-6.151 8.683-15.196 10.492-24.965 1.809-9.768 11.578-20.261 17.728-25.326 6.151-5.065 6.875-19.537 13.749-27.135 6.874-7.598 24.964-7.598 31.115-10.492 6.151-2.895 10.854-11.578 20.984-14.834 10.13-3.256 12.663 2.895 20.261 5.427 7.597 2.532 21.708 2.532 35.094 5.789 13.387 3.256 18.814-3.98 26.412-7.598 7.598-3.618 9.769 1.085 21.346 4.704 11.578 3.618 16.644-2.171 29.308-8.322 12.663-6.151 10.853-3.618 18.451 1.085 7.598 4.704 19.175-7.597 28.582-6.15 9.406 1.447 10.492 15.919 24.239 14.833 13.749-1.085 35.097 6.874 48.121 8.683 13.024 1.81 16.643 18.09 30.029 31.477s11.577 31.115 17.366 52.823c5.788 21.708 5.788 48.119 6.15 55.717.361 7.598 19.898 74.169 22.433 85.023 2.53 10.854 11.938 65.486 11.938 78.873s-5.424 52.823-6.871 68.381z"/><path d="M458.175 401.421c-3.618-3.618-11.095-6.512-21.708-10.854-10.613-4.342-17.849-3.136-27.015-4.342s-18.572 1.688-24.843 1.688c-6.271 0-19.72 2.773-28.644 5.908-8.924 3.136-11.396 4.945-19.115 8.323-7.718 3.377-11.336 5.548-22.673 25.567s16.885 10.13 25.568 7.719c8.683-2.412 13.748-6.513 23.879-9.407 10.13-2.894 20.502-2.894 32.08-3.136s30.365 1.167 46.311 3.136c7.693.951 15.437.966 20.743.482 5.308-.482 3.859-3.858 4.341-10.372.483-6.511-5.306-11.093-8.924-14.712zM690.21 428.559c-.963-14.113-2.654-16.524-8.683-22.314-6.029-5.789-18.271-13.749-23.096-15.678-4.823-1.929-17.607-7.235-25.325-6.994-7.72.241-21.769.242-27.075.724-5.308.482-23.096 3.204-32.26 3.738-10.592.617-16.464 6.392-22.251 8.804-5.789 2.412-17.365 5.548-17.126 12.062.239 6.512-1.447 14.713 4.343 16.884 5.789 2.171 16.641 4.343 26.29 1.207 9.646-3.138 27.496-6.754 34.974-7.719 7.479-.966 21.71-3.378 32.081-2.172 10.37 1.206 26.049 1.689 35.214 6.995 9.166 5.304 23.878 18.577 22.914 4.463zM598.192 633.697c-.905 1.809-.361 1.085 0 4.342.343 3.071 4.342 5.789 5.97 4.342 1.629-1.447 3.076-4.885 1.266-6.15-1.809-1.268-6.331-4.343-7.236-2.534zM696.06 667.888c-3.257 1.085-5.064 3.618-6.149 6.15s-2.353 3.257-2.714 5.969c-.681 5.104 3.438 10.132 6.332 8.323 2.895-1.811 7.055-5.79 6.331-9.771-.725-3.978-.544-11.757-3.8-10.671z"/></svg>