<svg width="800" height="800" viewBox="0 0 24 24" fill="none" xmlns="http://www.w3.org/2000/svg"><path d="M22.08.002H2.054A1.965 1.965 0 000 1.877v20.068A2.115 2.115 0 002.055 24h20.024A2.01 2.01 0 0024 21.945V1.877A1.845 1.845 0 0022.08.002zM7.5 20.01H4.005V9.316H7.5zM5.835 7.696a1.77 1.77 0 01-1.83-1.844 1.77 1.77 0 011.86-1.845 1.77 1.77 0 011.83 1.845 1.77 1.77 0 01-1.86 1.844zM20.01 20.01H16.5v-5.85c0-1.394-.495-2.354-1.74-2.354a1.875 1.875 0 00-1.755 1.26 2.146 2.146 0 00-.12.855v6.09h-3.45V9.315h3.45v1.5a3.48 3.48 0 013.15-1.815c2.265 0 3.975 1.5 3.975 4.695z" fill="#000"/></svg>